<?xml version="1.0" encoding="UTF-8"?>
<svg xmlns="http://www.w3.org/2000/svg" width="105.568" height="117.386" viewBox="0 0 105.568 117.386">
  <g transform="translate(-263.728 -280.785)">
    <path d="M298.647,326.329a22.54,22.54,0,0,1-8.854-1.8,23,23,0,0,1-12.141-12.123,22.634,22.634,0,0,1,0-17.684,23,23,0,0,1,12.141-12.141,22.664,22.664,0,0,1,24.934,4.9,22.752,22.752,0,0,1,6.671,16.1,22.49,22.49,0,0,1-1.791,8.829,22.945,22.945,0,0,1-12.111,12.124A22.494,22.494,0,0,1,298.647,326.329Zm0-44.044a21.272,21.272,0,1,0,21.25,21.294A21.318,21.318,0,0,0,298.647,282.285Z" transform="translate(5.98 0)" fill="#33343d"></path>
    <path d="M306.53,348.718H264.478a.75.75,0,0,1-.726-.937,47.564,47.564,0,0,1,5.747-13.4,44.889,44.889,0,0,1,9.243-10.637,41.365,41.365,0,0,1,11.97-7.017,39.381,39.381,0,0,1,13.914-2.531,39.872,39.872,0,0,1,21.338,6.27.75.75,0,0,1-.8,1.267,38.374,38.374,0,0,0-20.536-6.037c-17.979,0-33.956,12.913-39.17,31.523H306.53a.75.75,0,0,1,0,1.5Z" transform="translate(0 16.477)" fill="#33343d"></path>
    <path d="M323.807,314.255a.749.749,0,0,1,.441.143l30.543,22.176a.75.75,0,0,1,.273.839c-2.084,6.417-3.429,11.653-4.51,15.861-1.928,7.5-3.2,12.46-6.7,16.573a27.514,27.514,0,0,1-7.239,5.79,101.909,101.909,0,0,1-12.524,5.97.75.75,0,0,1-.575,0,101.707,101.707,0,0,1-12.5-5.967,27.525,27.525,0,0,1-7.228-5.785c-3.49-4.11-4.769-9.06-6.7-16.552-1.088-4.214-2.442-9.459-4.54-15.889a.75.75,0,0,1,.272-.84l9.187-6.67L323.367,314.4A.749.749,0,0,1,323.807,314.255Zm29.662,23.214-29.662-21.537L302.89,331.118l-8.746,6.35c2.017,6.238,3.334,11.34,4.4,15.46,1.95,7.551,3.127,12.108,6.394,15.956,3.168,3.73,8.471,6.885,18.871,11.218,10.425-4.336,15.737-7.493,18.907-11.226,3.27-3.851,4.443-8.415,6.386-15.976C350.157,348.787,351.466,343.693,353.469,337.469Z" transform="translate(14.196 16.506)" fill="#33343d"></path>
    <path d="M327.706,329.515a.748.748,0,0,1,.53.22L332.3,333.8a.75.75,0,0,1,0,1.061l-16.271,16.271a.75.75,0,0,1-1.061,0l-4.068-4.068-6.8-6.765a.75.75,0,0,1,0-1.065l4.108-4.068a.75.75,0,0,1,1.058,0l6.236,6.236,11.673-11.673A.748.748,0,0,1,327.706,329.515Zm3.007,4.818-3.007-3.007L316.033,343a.75.75,0,0,1-1.061,0l-6.238-6.239-3.041,3.011,6.27,6.233,3.539,3.539Z" transform="translate(19.801 24.032)" fill="#33343d"></path>
    <path d="M321.9,318.415a.749.749,0,0,1,.44.143l5.224,3.787c6.412,4.647,13.041,9.451,19.552,14.2a.75.75,0,0,1,.272.837c-1.675,5.182-2.762,9.419-3.635,12.823-1.572,6.13-2.61,10.179-5.468,13.551a22.442,22.442,0,0,1-5.913,4.737,82.664,82.664,0,0,1-10.185,4.857.75.75,0,0,1-.574,0,82.526,82.526,0,0,1-10.168-4.849,22.44,22.44,0,0,1-5.9-4.728c-2.854-3.363-3.891-7.4-5.461-13.5-.879-3.419-1.973-7.674-3.668-12.888a.75.75,0,0,1,.272-.838c4.125-3.005,8.329-6.051,12.4-9s8.261-5.984,12.381-8.985A.749.749,0,0,1,321.9,318.415ZM345.8,337.432c-6.367-4.639-12.843-9.332-19.11-13.873l-4.783-3.467c-3.98,2.9-8.026,5.829-11.944,8.667s-7.97,5.773-11.953,8.673c1.615,5.023,2.672,9.135,3.527,12.46,1.572,6.115,2.521,9.805,5.152,12.905,2.55,3,6.829,5.55,15.216,9.042,8.4-3.5,12.69-6.049,15.241-9.059,2.634-3.108,3.585-6.814,5.159-12.953C343.151,346.516,344.2,342.423,345.8,337.432Z" transform="translate(16.101 18.558)" fill="#33343d"></path>
    <path d="M26.249.75H0A.75.75,0,0,1-.75,0,.75.75,0,0,1,0-.75H26.249A.75.75,0,0,1,27,0,.75.75,0,0,1,26.249.75Z" transform="translate(281.298 369.623)" fill="#33343d"></path>
    <path d="M22.133.75H0A.75.75,0,0,1-.75,0,.75.75,0,0,1,0-.75H22.133a.75.75,0,0,1,.75.75A.75.75,0,0,1,22.133.75Z" transform="translate(286.699 374.758)" fill="#33343d"></path>
    <path d="M14.873.75H0A.75.75,0,0,1-.75,0,.75.75,0,0,1,0-.75H14.873a.75.75,0,0,1,.75.75A.75.75,0,0,1,14.873.75Z" transform="translate(295.242 379.937)" fill="#33343d"></path>
    <path d="M9.606.75H0A.75.75,0,0,1-.75,0,.75.75,0,0,1,0-.75H9.606a.75.75,0,0,1,.75.75A.75.75,0,0,1,9.606.75Z" transform="translate(301.793 385.072)" fill="#33343d"></path>
  </g>
</svg>
