<?xml version="1.0" encoding="UTF-8"?>
<svg xmlns="http://www.w3.org/2000/svg" width="136.5" height="94.245" viewBox="0 0 136.5 94.245">
  <g transform="translate(-360.231 -284.462)">
    <path d="M414.854,300.052a.75.75,0,0,1,.53.22l3.6,3.6a.75.75,0,0,1,0,1.061L404.58,319.34a.75.75,0,0,1-1.061,0l-9.592-9.592a.75.75,0,0,1,0-1.058l3.6-3.637a.742.742,0,0,1,.533-.222.75.75,0,0,1,.532.221l5.46,5.493,10.272-10.272A.75.75,0,0,1,414.854,300.052ZM417.4,304.4l-2.541-2.541L404.58,312.137a.75.75,0,0,1-.53.22h0a.75.75,0,0,1-.531-.221l-5.458-5.49-2.544,2.57,8.534,8.534Z" transform="translate(8.634 4.021)" fill="#33343d"></path>
    <path d="M456.283,362.3a.75.75,0,0,1-.748-.7l-4.886-68.285a.75.75,0,0,1,.748-.8,5.667,5.667,0,0,1,5.636,5.636v63.4a.75.75,0,0,1-.723.75Zm-4.074-68.2,3.324,46.46V298.148A4.2,4.2,0,0,0,452.21,294.1Zm-67.634,68.2H374.2a5.666,5.666,0,0,1-5.634-5.636v-4.35a.75.75,0,0,1,1.5,0v4.35A4.191,4.191,0,0,0,374.2,360.8h10.377a.75.75,0,0,1,0,1.5Zm-15.261-63.4a.75.75,0,0,1-.75-.75,5.666,5.666,0,0,1,5.634-5.636h25.14a.75.75,0,0,1,.12,1.49l-30.024,4.886A.75.75,0,0,1,369.315,298.9Zm4.884-4.886a4.2,4.2,0,0,0-4.032,3.237l19.893-3.237Z" transform="translate(2.15 2.076)" fill="#33343d"></path>
    <path d="M392.468,364.334a12.052,12.052,0,1,1,12.089-12.054A12.067,12.067,0,0,1,392.468,364.334Zm0-22.643a10.571,10.571,0,1,0,10.589,10.589A10.583,10.583,0,0,0,392.468,341.691Z" transform="translate(5.206 14.374)" fill="#33343d"></path>
    <path d="M391.078,356.162a5.279,5.279,0,1,1,5.279-5.279A5.284,5.284,0,0,1,391.078,356.162Zm0-9.057a3.779,3.779,0,1,0,3.779,3.778A3.783,3.783,0,0,0,391.078,347.105Z" transform="translate(6.595 15.77)" fill="#33343d"></path>
    <path d="M453.809,364.334A12.052,12.052,0,1,1,465.9,352.28,12.067,12.067,0,0,1,453.809,364.334Zm0-22.643A10.571,10.571,0,1,0,464.4,352.28,10.583,10.583,0,0,0,453.809,341.691Z" transform="translate(21.027 14.374)" fill="#33343d"></path>
    <path d="M452.412,356.162a5.279,5.279,0,1,1,5.279-5.279A5.266,5.266,0,0,1,452.412,356.162Zm0-9.057a3.779,3.779,0,1,0,3.779,3.778A3.765,3.765,0,0,0,452.412,347.105Z" transform="translate(22.423 15.77)" fill="#33343d"></path>
    <path d="M54.77.75H0A.75.75,0,0,1-.75,0,.75.75,0,0,1,0-.75H54.77a.75.75,0,0,1,.75.75A.75.75,0,0,1,54.77.75Z" transform="translate(409.012 363.623)" fill="#33343d"></path>
    <path d="M20.931.75H0A.75.75,0,0,1-.75,0,.75.75,0,0,1,0-.75H20.931a.75.75,0,0,1,.75.75A.75.75,0,0,1,20.931.75Z" transform="translate(360.981 354.388)" fill="#33343d"></path>
    <path d="M26.137.75H0A.75.75,0,0,1-.75,0,.75.75,0,0,1,0-.75H26.137a.75.75,0,0,1,.75.75A.75.75,0,0,1,26.137.75Z" transform="translate(368.612 345.616)" fill="#33343d"></path>
    <path d="M464.125,310.638H438.452a.75.75,0,0,1,0-1.5h24.889a8.318,8.318,0,0,0-8.273-7.557H438.452a.75.75,0,0,1,0-1.5h16.616a9.818,9.818,0,0,1,9.807,9.807A.75.75,0,0,1,464.125,310.638Z" transform="translate(19.981 4.028)" fill="#33343d"></path>
    <path d="M476,354.81h-9.877a.75.75,0,1,1,0-1.5h9.127V331.346a8.316,8.316,0,0,0-8.307-8.307H438.452a.75.75,0,0,1,0-1.5h28.491a9.818,9.818,0,0,1,9.807,9.807V354.06A.75.75,0,0,1,476,354.81Z" transform="translate(19.981 9.563)" fill="#33343d"></path>
    <path d="M2.816,18.686a.75.75,0,0,1-.74-.634L-.741.116A.75.75,0,0,1-.116-.741a.75.75,0,0,1,.857.625L3.558,17.819a.751.751,0,0,1-.742.866Z" transform="translate(484.107 313.916)" fill="#33343d"></path>
    <path d="M34.053.75H0A.75.75,0,0,1-.75,0,.75.75,0,0,1,0-.75H34.053A.75.75,0,0,1,34.8,0,.75.75,0,0,1,34.053.75Z" transform="translate(415.894 354.388)" fill="#33343d"></path>
    <path d="M470.5,339.475H469a10.011,10.011,0,0,1-9.986-9.986.75.75,0,0,1,.75-.75H470.5a.75.75,0,0,1,0,1.5h-9.951A8.5,8.5,0,0,0,469,337.975h1.5a.75.75,0,0,1,0,1.5Z" transform="translate(25.479 11.42)" fill="#33343d"></path>
    <path d="M409.3,343.157a.749.749,0,0,1-.36-.092,45.617,45.617,0,0,1-9.144-6.573,48.6,48.6,0,0,1-7.413-8.772,60.5,60.5,0,0,1-5.678-10.939,83.145,83.145,0,0,1-3.955-13.081.75.75,0,0,1,.5-.875A49,49,0,0,0,408.7,284.768a.75.75,0,0,1,.6-.306h0a.75.75,0,0,1,.6.308,48.765,48.765,0,0,0,25.4,18.056.75.75,0,0,1,.5.873,82.432,82.432,0,0,1-3.939,13.082,60.345,60.345,0,0,1-5.676,10.939,48.678,48.678,0,0,1-7.411,8.772,45.7,45.7,0,0,1-9.127,6.572A.75.75,0,0,1,409.3,343.157Zm-24.936-39.116c4.06,17.92,12.447,30.536,24.936,37.509,12.507-7,20.882-19.616,24.9-37.509a50.079,50.079,0,0,1-24.9-17.576A50.314,50.314,0,0,1,384.368,304.041Z" transform="translate(5.805 0)" fill="#33343d"></path>
    <path d="M20.931.75H0A.75.75,0,0,1-.75,0,.75.75,0,0,1,0-.75H20.931a.75.75,0,0,1,.75.75A.75.75,0,0,1,20.931.75Z" transform="translate(366.437 336.844)" fill="#33343d"></path>
    <path d="M18.043.75H0A.75.75,0,0,1-.75,0,.75.75,0,0,1,0-.75H18.043a.75.75,0,0,1,.75.75A.75.75,0,0,1,18.043.75Z" transform="translate(360.981 328.072)" fill="#33343d"></path>
  </g>
</svg>
