<?xml version="1.0" encoding="UTF-8"?>
<svg xmlns="http://www.w3.org/2000/svg" width="107.514" height="83.298" viewBox="0 0 107.514 83.298">
  <g transform="translate(-139.885 -284.652)">
    <path d="M201.266,362.4a1,1,0,0,1-1-1V286.652H164.4V361.4a1,1,0,0,1-2,0V285.652a1,1,0,0,1,1-1h37.865a1,1,0,0,1,1,1V361.4A1,1,0,0,1,201.266,362.4Z" transform="translate(2.473 0)" fill="#33343d"></path>
    <path d="M160.752,358.35a1,1,0,0,1-1-1v-32.7l-11.961,10.1v22.6a1,1,0,0,1-2,0V334.286a1,1,0,0,1,.355-.764l13.961-11.791a1,1,0,0,1,1.645.764V357.35A1,1,0,0,1,160.752,358.35Z" transform="translate(0.649 4.047)" fill="#33343d"></path>
    <path d="M0-1H9.312a1,1,0,0,1,1,1V11.644a1,1,0,0,1-1,1H0a1,1,0,0,1-1-1V0A1,1,0,0,1,0-1ZM8.312,1H1v9.644H8.312Z" transform="translate(172.4 292.325)" fill="#33343d"></path>
    <path d="M0-1H9.312a1,1,0,0,1,1,1V11.644a1,1,0,0,1-1,1H0a1,1,0,0,1-1-1V0A1,1,0,0,1,0-1ZM8.312,1H1v9.644H8.312Z" transform="translate(187.915 292.325)" fill="#33343d"></path>
    <path d="M0-1H9.312a1,1,0,0,1,1,1V11.644a1,1,0,0,1-1,1H0a1,1,0,0,1-1-1V0A1,1,0,0,1,0-1ZM8.312,1H1v9.644H8.312Z" transform="translate(172.4 309.395)" fill="#33343d"></path>
    <path d="M0-1H9.312a1,1,0,0,1,1,1V11.644a1,1,0,0,1-1,1H0a1,1,0,0,1-1-1V0A1,1,0,0,1,0-1ZM8.312,1H1v9.644H8.312Z" transform="translate(187.915 309.395)" fill="#33343d"></path>
    <path d="M0-1H9.312a1,1,0,0,1,1,1V11.629a1,1,0,0,1-1,1H0a1,1,0,0,1-1-1V0A1,1,0,0,1,0-1ZM8.312,1H1v9.629H8.312Z" transform="translate(172.4 326.479)" fill="#33343d"></path>
    <path d="M0-1H9.312a1,1,0,0,1,1,1V11.629a1,1,0,0,1-1,1H0a1,1,0,0,1-1-1V0A1,1,0,0,1,0-1ZM8.312,1H1v9.629H8.312Z" transform="translate(187.915 326.479)" fill="#33343d"></path>
    <path d="M0-1H9.312a1,1,0,0,1,1,1V11.629a1,1,0,0,1-1,1H0a1,1,0,0,1-1-1V0A1,1,0,0,1,0-1ZM8.312,1H1v9.629H8.312Z" transform="translate(172.4 343.549)" fill="#33343d"></path>
    <path d="M0-1H9.312a1,1,0,0,1,1,1V11.629a1,1,0,0,1-1,1H0a1,1,0,0,1-1-1V0A1,1,0,0,1,0-1ZM8.312,1H1v9.629H8.312Z" transform="translate(187.915 343.549)" fill="#33343d"></path>
    <path d="M5.587,1H0A1,1,0,0,1-1,0,1,1,0,0,1,0-1H5.587a1,1,0,0,1,1,1A1,1,0,0,1,5.587,1Z" transform="translate(151.62 343.183)" fill="#33343d"></path>
    <path d="M5.587,1H0A1,1,0,0,1-1,0,1,1,0,0,1,0-1H5.587a1,1,0,0,1,1,1A1,1,0,0,1,5.587,1Z" transform="translate(151.62 355.178)" fill="#33343d"></path>
    <path d="M211.682,360.768a1,1,0,0,1-1-1V312.733l-13.62-11.491a1,1,0,0,1,1.29-1.529L212.327,311.5a1,1,0,0,1,.355.764v47.5A1,1,0,0,1,211.682,360.768Z" transform="translate(6.241 1.628)" fill="#33343d"></path>
    <path d="M5.587,1H0A1,1,0,0,1-1,0,1,1,0,0,1,0-1H5.587a1,1,0,0,1,1,1A1,1,0,0,1,5.587,1Z" transform="translate(208.142 319.176)" fill="#33343d"></path>
    <path d="M5.587,1H0A1,1,0,0,1-1,0,1,1,0,0,1,0-1H5.587a1,1,0,0,1,1,1A1,1,0,0,1,5.587,1Z" transform="translate(208.142 331.187)" fill="#33343d"></path>
    <path d="M5.587,1H0A1,1,0,0,1-1,0,1,1,0,0,1,0-1H5.587a1,1,0,0,1,1,1A1,1,0,0,1,5.587,1Z" transform="translate(208.142 343.183)" fill="#33343d"></path>
    <path d="M5.587,1H0A1,1,0,0,1-1,0,1,1,0,0,1,0-1H5.587a1,1,0,0,1,1,1A1,1,0,0,1,5.587,1Z" transform="translate(208.142 355.178)" fill="#33343d"></path>
    <path d="M105.514,1H0A1,1,0,0,1-1,0,1,1,0,0,1,0-1H105.514a1,1,0,0,1,1,1A1,1,0,0,1,105.514,1Z" transform="translate(140.885 366.95)" fill="#33343d"></path>
    <path d="M6.551-1A7.551,7.551,0,1,1-1,6.551,7.56,7.56,0,0,1,6.551-1Zm0,13.1A5.551,5.551,0,1,0,1,6.551,5.557,5.557,0,0,0,6.551,12.1Z" transform="translate(221.945 334.255)" fill="#33343d"></path>
    <path d="M4.072-1A5.072,5.072,0,1,1-1,4.072,5.077,5.077,0,0,1,4.072-1Zm0,8.144A3.072,3.072,0,1,0,1,4.072,3.075,3.075,0,0,0,4.072,7.144Z" transform="translate(233.333 348.863)" fill="#33343d"></path>
    <path d="M0,14.354a1,1,0,0,1-1-1V0A1,1,0,0,1,0-1,1,1,0,0,1,1,0V13.354A1,1,0,0,1,0,14.354Z" transform="translate(228.459 347.899)" fill="#33343d"></path>
    <path d="M0,4.909a1,1,0,0,1-1-1V0A1,1,0,0,1,0-1,1,1,0,0,1,1,0V3.909A1,1,0,0,1,0,4.909Z" transform="translate(237.362 357.345)" fill="#33343d"></path>
  </g>
</svg>
