<?xml version="1.0" encoding="UTF-8"?>
<svg xmlns="http://www.w3.org/2000/svg" width="112.484" height="109.101" viewBox="0 0 112.484 109.101">
  <g transform="translate(-151.739 -190.295)">
    <path d="M0-1H12.986a1,1,0,0,1,1,1V16.369a1,1,0,0,1-1,1H0a1,1,0,0,1-1-1V0A1,1,0,0,1,0-1ZM11.986,1H1V15.369H11.986Z" transform="translate(152.739 206.434)" fill="#33343d"></path>
    <path d="M259.837,215.935h-97.5a1,1,0,0,1,0-2h93.617l-14.763-8.15H162.339a1,1,0,0,1,0-2h79.112a1,1,0,0,1,.483.125l18.385,10.15a1,1,0,0,1-.483,1.875Z" transform="translate(3.386 4.758)" fill="#33343d"></path>
    <path d="M233.61,210.544a1,1,0,0,1-.29-.043l-59.756-18.079-15.332,14.733a1,1,0,1,1-1.386-1.442L172.6,190.574a1,1,0,0,1,.982-.236L233.9,208.586a1,1,0,0,1-.289,1.957Z" transform="translate(1.693 0)" fill="#33343d"></path>
    <path d="M0,19.249a1,1,0,0,1-1-1V0A1,1,0,0,1,0-1,1,1,0,0,1,1,0V18.249A1,1,0,0,1,0,19.249Z" transform="translate(174.986 191.295)" fill="#33343d"></path>
    <path d="M0,79.7a1,1,0,0,1-1-1V0A1,1,0,0,1,0-1,1,1,0,0,1,1,0V78.7A1,1,0,0,1,0,79.7Z" transform="translate(174.986 219.693)" fill="#33343d"></path>
    <path d="M0,79.7a1,1,0,0,1-1-1V0A1,1,0,0,1,0-1,1,1,0,0,1,1,0V78.7A1,1,0,0,1,0,79.7Z" transform="translate(193.645 219.693)" fill="#33343d"></path>
    <path d="M15.242,19.249a1,1,0,0,1-.768-.359L-.768.641A1,1,0,0,1-.641-.768,1,1,0,0,1,.768-.641L16.009,17.608a1,1,0,0,1-.767,1.641Z" transform="translate(174.986 191.295)" fill="#33343d"></path>
    <path d="M18.658,14.089a1,1,0,0,1-.573-.181L-.574.819A1,1,0,0,1-.819-.574,1,1,0,0,1,.574-.819L19.233,12.27a1,1,0,0,1-.575,1.819Z" transform="translate(174.986 219.693)" fill="#33343d"></path>
    <path d="M0,14.123A1,1,0,0,1-.818,13.7,1,1,0,0,1-.575,12.3L18.084-.818a1,1,0,0,1,1.393.243A1,1,0,0,1,19.234.818L.575,13.941A1,1,0,0,1,0,14.123Z" transform="translate(174.986 232.782)" fill="#33343d"></path>
    <path d="M18.658,14.123a1,1,0,0,1-.574-.182L-.575.818A1,1,0,0,1-.818-.575,1,1,0,0,1,.575-.818L19.234,12.3a1,1,0,0,1-.576,1.818Z" transform="translate(174.986 245.904)" fill="#33343d"></path>
    <path d="M0,14.123A1,1,0,0,1-.818,13.7,1,1,0,0,1-.575,12.3L18.084-.818a1,1,0,0,1,1.393.243A1,1,0,0,1,19.234.818L.575,13.941A1,1,0,0,1,0,14.123Z" transform="translate(174.986 259.027)" fill="#33343d"></path>
    <path d="M18.658,14.123a1,1,0,0,1-.574-.182L-.575.818A1,1,0,0,1-.818-.575,1,1,0,0,1,.575-.818L19.234,12.3a1,1,0,0,1-.576,1.818Z" transform="translate(174.986 272.15)" fill="#33343d"></path>
    <path d="M0,14.123A1,1,0,0,1-.818,13.7,1,1,0,0,1-.575,12.3L18.084-.818a1,1,0,0,1,1.393.243A1,1,0,0,1,19.234.818L.575,13.941A1,1,0,0,1,0,14.123Z" transform="translate(174.986 285.273)" fill="#33343d"></path>
    <path d="M18.659,1H0A1,1,0,0,1-1,0,1,1,0,0,1,0-1H18.659a1,1,0,0,1,1,1A1,1,0,0,1,18.659,1Z" transform="translate(174.986 232.782)" fill="#33343d"></path>
    <path d="M18.659,1H0A1,1,0,0,1-1,0,1,1,0,0,1,0-1H18.659a1,1,0,0,1,1,1A1,1,0,0,1,18.659,1Z" transform="translate(174.986 245.904)" fill="#33343d"></path>
    <path d="M18.659,1H0A1,1,0,0,1-1,0,1,1,0,0,1,0-1H18.659a1,1,0,0,1,1,1A1,1,0,0,1,18.659,1Z" transform="translate(174.986 259.027)" fill="#33343d"></path>
    <path d="M18.659,1H0A1,1,0,0,1-1,0,1,1,0,0,1,0-1H18.659a1,1,0,0,1,1,1A1,1,0,0,1,18.659,1Z" transform="translate(174.986 272.15)" fill="#33343d"></path>
    <path d="M18.659,1H0A1,1,0,0,1-1,0,1,1,0,0,1,0-1H18.659a1,1,0,0,1,1,1A1,1,0,0,1,18.659,1Z" transform="translate(174.986 285.273)" fill="#33343d"></path>
    <path d="M34.652,1H0A1,1,0,0,1-1,0,1,1,0,0,1,0-1H34.652a1,1,0,0,1,1,1A1,1,0,0,1,34.652,1Z" transform="translate(166.99 298.395)" fill="#33343d"></path>
    <path d="M54.746,1H0A1,1,0,0,1-1,0,1,1,0,0,1,0-1H54.746a1,1,0,0,1,1,1A1,1,0,0,1,54.746,1Z" transform="translate(207.759 298.395)" fill="#33343d"></path>
    <path d="M242.506,279.871a1,1,0,0,1-1-1V247.646H197.747v31.226a1,1,0,0,1-2,0V246.646a1,1,0,0,1,1-1h45.759a1,1,0,0,1,1,1v32.226A1,1,0,0,1,242.506,279.871Z" transform="translate(15.523 19.524)" fill="#33343d"></path>
    <path d="M222.471,276.414a1,1,0,0,1-1-1V257.447H209.494v17.966a1,1,0,0,1-2,0V256.447a1,1,0,0,1,1-1h13.977a1,1,0,0,1,1,1v18.966A1,1,0,0,1,222.471,276.414Z" transform="translate(19.666 22.981)" fill="#33343d"></path>
    <path d="M219.609,224.778a1,1,0,0,1,.682.269l7.442,6.941v-5.526a1,1,0,0,1,1-1h7.006a1,1,0,0,1,1,1v13.919l6.449,6.026a1,1,0,0,1-.683,1.731H196.747a1,1,0,0,1-.683-1.731l22.862-21.359A1,1,0,0,1,219.609,224.778Zm9.125,10.509a1,1,0,0,1-.682-.269l-8.442-7.873-20.328,18.991h40.688l-4.914-4.591a1,1,0,0,1-.317-.731V227.462h-5.006v6.826a1,1,0,0,1-1,1Z" transform="translate(15.523 12.163)" fill="#33343d"></path>
    <path d="M221.159,221.114H210.394a1,1,0,0,1-.944-.67l-2.734-7.826a1,1,0,1,1,1.888-.66l2.5,7.156h9.345l2.5-7.156a1,1,0,0,1,1.888.66l-2.734,7.826A1,1,0,0,1,221.159,221.114Z" transform="translate(19.372 7.405)" fill="#33343d"></path>
    <path d="M0,11.423a1,1,0,0,1-1-1V0A1,1,0,0,1,0-1,1,1,0,0,1,1,0V10.423A1,1,0,0,1,0,11.423Z" transform="translate(235.132 227.519)" fill="#33343d"></path>
  </g>
</svg>
